REM DIRINDEX 1\8,1\2\11,1\3\12,1\3\14,1\5\15,1\5\16,1\6\17,1\6\18,1\4\19,1\4\20,1\4\21,1\4\22,1\7\23,1\7\24,1\7\25,1\2\9\26,1\2\9\27,1\2\10\28,1\2\10\29,1\2\10\30,1\2\10\31,1\2\10\32,1\3\13\33,1\3\13\34,1\3\13\35
REM DIRNAME cjc123,folder01,folder02,folder03,folder04,folder05,folder06,folder07,folder08,folder09,folder10,folder11,folder12,folder13,folder14,folder15,folder16,folder17,folder18,folder19,folder20,folder21,folder22,folder23,folder24,folder25,folder26,folder27,folder28,folder29,folder30,folder31,folder32,folder33,folder34
TITLE ""
FILE "110 110_UNIT6_SET1.mp3" MP3
  TRACK 01 AUDIO
    TITLE "14:cjc123_2043"
    INDEX 01 00:00:00
  TRACK 02 AUDIO
    TITLE "0:"
    INDEX 01 00:02:57
  TRACK 03 AUDIO
    TITLE "33:cjc123_2044"
    INDEX 01 00:03:39
  TRACK 04 AUDIO
    TITLE "0:"
    INDEX 01 00:04:48
  TRACK 05 AUDIO
    TITLE "34:cjc123_2045"
    INDEX 01 00:04:72
  TRACK 06 AUDIO
    TITLE "0:"
    INDEX 01 00:06:06
  TRACK 07 AUDIO
    TITLE "35:cjc123_2046"
    INDEX 01 00:06:59
  TRACK 08 AUDIO
    TITLE "0:"
    INDEX 01 00:11:05
  TRACK 09 AUDIO
    TITLE "33:cjc123_2047"
    INDEX 01 00:11:68
  TRACK 10 AUDIO
    TITLE "0:"
    INDEX 01 00:13:12
  TRACK 11 AUDIO
    TITLE "34:cjc123_2048"
    INDEX 01 00:13:47
  TRACK 12 AUDIO
    TITLE "0:"
    INDEX 01 00:14:45
  TRACK 13 AUDIO
    TITLE "35:cjc123_2049"
    INDEX 01 00:15:25
  TRACK 14 AUDIO
    TITLE "0:"
    INDEX 01 00:19:54
  TRACK 15 AUDIO
    TITLE "33:cjc123_2050"
    INDEX 01 00:20:39
  TRACK 16 AUDIO
    TITLE "0:"
    INDEX 01 00:21:57
  TRACK 17 AUDIO
    TITLE "34:cjc123_2051"
    INDEX 01 00:22:07
  TRACK 18 AUDIO
    TITLE "0:"
    INDEX 01 00:23:18
  TRACK 19 AUDIO
    TITLE "35:cjc123_2052"
    INDEX 01 00:23:65
  TRACK 20 AUDIO
    TITLE "0:"
    INDEX 01 00:27:30
  TRACK 21 AUDIO
    TITLE "33:cjc123_2053"
    INDEX 01 00:28:06
  TRACK 22 AUDIO
    TITLE "0:"
    INDEX 01 00:29:27
  TRACK 23 AUDIO
    TITLE "34:cjc123_2054"
    INDEX 01 00:29:64
  TRACK 24 AUDIO
    TITLE "0:"
    INDEX 01 00:31:00
  TRACK 25 AUDIO
    TITLE "35:cjc123_2055"
    INDEX 01 00:31:59
  TRACK 26 AUDIO
    TITLE "0:"
    INDEX 01 00:35:74
  TRACK 27 AUDIO
    TITLE "33:cjc123_2056"
    INDEX 01 00:36:54
  TRACK 28 AUDIO
    TITLE "0:"
    INDEX 01 00:37:67
  TRACK 29 AUDIO
    TITLE "34:cjc123_2057"
    INDEX 01 00:38:20
  TRACK 30 AUDIO
    TITLE "0:"
    INDEX 01 00:39:21
  TRACK 31 AUDIO
    TITLE "35:cjc123_2058"
    INDEX 01 00:39:74
  TRACK 32 AUDIO
    TITLE "0:"
    INDEX 01 00:44:48
  TRACK 33 AUDIO
    TITLE "33:cjc123_2059"
    INDEX 01 00:45:32
  TRACK 34 AUDIO
    TITLE "0:"
    INDEX 01 00:46:39
  TRACK 35 AUDIO
    TITLE "34:cjc123_2060"
    INDEX 01 00:46:66
  TRACK 36 AUDIO
    TITLE "0:"
    INDEX 01 00:47:66
  TRACK 37 AUDIO
    TITLE "35:cjc123_2061"
    INDEX 01 00:48:46
  TRACK 38 AUDIO
    TITLE "0:"
    INDEX 01 00:53:11
  TRACK 39 AUDIO
    TITLE "33:cjc123_2062"
    INDEX 01 00:53:62
  TRACK 40 AUDIO
    TITLE "0:"
    INDEX 01 00:55:06
  TRACK 41 AUDIO
    TITLE "34:cjc123_2063"
    INDEX 01 00:55:30
  TRACK 42 AUDIO
    TITLE "0:"
    INDEX 01 00:56:37
  TRACK 43 AUDIO
    TITLE "35:cjc123_2064"
    INDEX 01 00:57:13
  TRACK 44 AUDIO
    TITLE "0:"
    INDEX 01 01:02:30
  TRACK 45 AUDIO
    TITLE "33:cjc123_2065"
    INDEX 01 01:03:12
  TRACK 46 AUDIO
    TITLE "0:"
    INDEX 01 01:04:13
  TRACK 47 AUDIO
    TITLE "34:cjc123_2066"
    INDEX 01 01:04:45
  TRACK 48 AUDIO
    TITLE "0:"
    INDEX 01 01:05:50
  TRACK 49 AUDIO
    TITLE "35:cjc123_2067"
    INDEX 01 01:06:22
  TRACK 50 AUDIO
    TITLE "0:"
    INDEX 01 01:11:17
  TRACK 51 AUDIO
    TITLE "33:cjc123_2068"
    INDEX 01 01:11:68
  TRACK 52 AUDIO
    TITLE "0:"
    INDEX 01 01:13:18
  TRACK 53 AUDIO
    TITLE "34:cjc123_2069"
    INDEX 01 01:13:47
  TRACK 54 AUDIO
    TITLE "0:"
    INDEX 01 01:14:68
  TRACK 55 AUDIO
    TITLE "35:cjc123_2070"
    INDEX 01 01:15:46
  TRACK 56 AUDIO
    TITLE "0:"
    INDEX 01 01:20:32
  TRACK 57 AUDIO
    TITLE "33:cjc123_2071"
    INDEX 01 01:21:06
  TRACK 58 AUDIO
    TITLE "0:"
    INDEX 01 01:22:15
  TRACK 59 AUDIO
    TITLE "34:cjc123_2072"
    INDEX 01 01:22:46
  TRACK 60 AUDIO
    TITLE "0:"
    INDEX 01 01:23:50
  TRACK 61 AUDIO
    TITLE "35:cjc123_2073"
    INDEX 01 01:24:37
  TRACK 62 AUDIO
    TITLE "0:"
    INDEX 01 01:28:39
  TRACK 63 AUDIO
    TITLE "33:cjc123_2074"
    INDEX 01 01:29:23
  TRACK 64 AUDIO
    TITLE "0:"
    INDEX 01 01:30:36
  TRACK 65 AUDIO
    TITLE "34:cjc123_2075"
    INDEX 01 01:30:67
  TRACK 66 AUDIO
    TITLE "0:"
    INDEX 01 01:32:00
  TRACK 67 AUDIO
    TITLE "35:cjc123_2076"
    INDEX 01 01:32:53
  TRACK 68 AUDIO
    TITLE "0:"
    INDEX 01 01:38:12
  TRACK 69 AUDIO
    TITLE "33:cjc123_2077"
    INDEX 01 01:38:67
  TRACK 70 AUDIO
    TITLE "0:"
    INDEX 01 01:39:72
  TRACK 71 AUDIO
    TITLE "34:cjc123_2078"
    INDEX 01 01:40:17
  TRACK 72 AUDIO
    TITLE "0:"
    INDEX 01 01:41:30
  TRACK 73 AUDIO
    TITLE "35:cjc123_2079"
    INDEX 01 01:42:04
  TRACK 74 AUDIO
    TITLE "0:"
    INDEX 01 01:47:60
  TRACK 75 AUDIO
    TITLE "33:cjc123_2080"
    INDEX 01 01:48:34
  TRACK 76 AUDIO
    TITLE "0:"
    INDEX 01 01:49:14
  TRACK 77 AUDIO
    TITLE "34:cjc123_2081"
    INDEX 01 01:49:41
  TRACK 78 AUDIO
    TITLE "0:"
    INDEX 01 01:50:27
  TRACK 79 AUDIO
    TITLE "35:cjc123_2082"
    INDEX 01 01:51:07
  TRACK 80 AUDIO
    TITLE "0:"
    INDEX 01 01:55:69
  TRACK 81 AUDIO
    TITLE "33:cjc123_2083"
    INDEX 01 01:56:51
  TRACK 82 AUDIO
    TITLE "0:"
    INDEX 01 01:57:60
  TRACK 83 AUDIO
    TITLE "34:cjc123_2084"
    INDEX 01 01:58:05
  TRACK 84 AUDIO
    TITLE "0:"
    INDEX 01 01:59:08
  TRACK 85 AUDIO
    TITLE "35:cjc123_2085"
    INDEX 01 01:59:65
  TRACK 86 AUDIO
    TITLE "0:"
    INDEX 01 02:06:06
  TRACK 87 AUDIO
    TITLE "33:cjc123_2086"
    INDEX 01 02:07:06
  TRACK 88 AUDIO
    TITLE "0:"
    INDEX 01 02:08:03
  TRACK 89 AUDIO
    TITLE "34:cjc123_2087"
    INDEX 01 02:08:25
  TRACK 90 AUDIO
    TITLE "0:"
    INDEX 01 02:09:24
  TRACK 91 AUDIO
    TITLE "35:cjc123_2088"
    INDEX 01 02:10:04
  TRACK 92 AUDIO
    TITLE "0:"
    INDEX 01 02:14:63
